HIERARCHY
ROOT Hips
{
	OFFSET 0.000000 100.481300 0.000000
	CHANNELS 6 Xposition Yposition Zposition Xrotation Yrotation Zrotation
	JOINT Spine
	{
		OFFSET -0.279200 12.230698 -2.892100
		CHANNELS 3 Xrotation Yrotation Zrotation
		JOINT Spine1
		{
			OFFSET -0.325700 14.269203 -3.374200
			CHANNELS 3 Xrotation Yrotation Zrotation
			JOINT Spine2
			{
				OFFSET -0.372300 16.307602 -0.352600
				CHANNELS 3 Xrotation Yrotation Zrotation
				JOINT Neck
				{
					OFFSET -0.418800 17.814194 8.416900
					CHANNELS 3 Xrotation Yrotation Zrotation
					JOINT Head
					{
						OFFSET 0.000000 7.031097 3.806800
						CHANNELS 3 Xrotation Yrotation Zrotation
						JOINT HeadTop_End
						{
							OFFSET 0.000000 24.646606 12.978600
							CHANNELS 3 Xrotation Yrotation Zrotation
							End Site
							{
								OFFSET 0.000000 27.854965 0.000000
							}
						}
					}
				}
				JOINT LeftShoulder
				{
					OFFSET 16.952999 14.495407 -7.737500
					CHANNELS 3 Xrotation Yrotation Zrotation
					JOINT LeftArm
					{
						OFFSET 9.308998 -2.777710 0.208600
						CHANNELS 3 Xrotation Yrotation Zrotation
						JOINT LeftForeArm
						{
							OFFSET 29.972298 0.000000 0.000000
							CHANNELS 3 Xrotation Yrotation Zrotation
							JOINT LeftHand
							{
								OFFSET 26.026505 0.000000 0.000000
								CHANNELS 3 Xrotation Yrotation Zrotation
								JOINT LeftHandThumb1
								{
									OFFSET 12.240501 -7.147949 9.207150
									CHANNELS 3 Xrotation Yrotation Zrotation
									JOINT LeftHandThumb2
									{
										OFFSET 4.138618 -2.389435 2.389433
										CHANNELS 3 Xrotation Yrotation Zrotation
										JOINT LeftHandThumb3
										{
											OFFSET 2.726913 -1.574387 1.574386
											CHANNELS 3 Xrotation Yrotation Zrotation
											JOINT LeftHandThumb4
											{
												OFFSET 3.941010 -2.275345 2.275342
												CHANNELS 3 Xrotation Yrotation Zrotation
												End Site
												{
													OFFSET -0.005798 5.087799 0.009903
												}
											}
										}
									}
								}
								JOINT LeftHandIndex1
								{
									OFFSET 24.424698 -1.985611 5.953459
									CHANNELS 3 Xrotation Yrotation Zrotation
									JOINT LeftHandIndex2
									{
										OFFSET 6.426697 0.000000 0.000000
										CHANNELS 3 Xrotation Yrotation Zrotation
										JOINT LeftHandIndex3
										{
											OFFSET 5.337898 0.000000 0.000000
											CHANNELS 3 Xrotation Yrotation Zrotation
											JOINT LeftHandIndex4
											{
												OFFSET 4.409401 0.000000 0.000000
												CHANNELS 3 Xrotation Yrotation Zrotation
												End Site
												{
													OFFSET 0.000000 4.409363 0.014373
												}
											}
										}
									}
								}
								JOINT LeftHandMiddle1
								{
									OFFSET 23.810104 0.000000 0.000000
									CHANNELS 3 Xrotation Yrotation Zrotation
									JOINT LeftHandMiddle2
									{
										OFFSET 7.176498 0.000000 0.000000
										CHANNELS 3 Xrotation Yrotation Zrotation
										JOINT LeftHandMiddle3
										{
											OFFSET 6.774902 0.000000 0.000000
											CHANNELS 3 Xrotation Yrotation Zrotation
											JOINT LeftHandMiddle4
											{
												OFFSET 5.403328 0.000000 0.000000
												CHANNELS 3 Xrotation Yrotation Zrotation
												End Site
												{
													OFFSET -0.027702 5.403244 0.017414
												}
											}
										}
									}
								}
								JOINT LeftHandRing1
								{
									OFFSET 22.908401 -0.839279 -6.020567
									CHANNELS 3 Xrotation Yrotation Zrotation
									JOINT LeftHandRing2
									{
										OFFSET 6.337502 0.000000 0.000000
										CHANNELS 3 Xrotation Yrotation Zrotation
										JOINT LeftHandRing3
										{
											OFFSET 5.779297 0.000000 0.000000
											CHANNELS 3 Xrotation Yrotation Zrotation
											JOINT LeftHandRing4
											{
												OFFSET 4.965698 0.000000 0.000000
												CHANNELS 3 Xrotation Yrotation Zrotation
												End Site
												{
													OFFSET 0.000000 4.965668 0.016186
												}
											}
										}
									}
								}
								JOINT LeftHandPinky1
								{
									OFFSET 20.037003 -1.530319 -10.950146
									CHANNELS 3 Xrotation Yrotation Zrotation
									JOINT LeftHandPinky2
									{
										OFFSET 5.254700 0.000000 0.000000
										CHANNELS 3 Xrotation Yrotation Zrotation
										JOINT LeftHandPinky3
										{
											OFFSET 4.810204 0.000000 0.000000
											CHANNELS 3 Xrotation Yrotation Zrotation
											JOINT LeftHandPinky4
											{
												OFFSET 3.647202 0.000000 0.000000
												CHANNELS 3 Xrotation Yrotation Zrotation
												End Site
												{
													OFFSET 0.000000 3.647186 0.011889
												}
											}
										}
									}
								}
							}
						}
					}
				}
				JOINT RightShoulder
				{
					OFFSET -15.141001 14.495407 -7.737500
					CHANNELS 3 Xrotation Yrotation Zrotation
					JOINT RightArm
					{
						OFFSET -9.308998 -2.777710 0.208500
						CHANNELS 3 Xrotation Yrotation Zrotation
						JOINT RightForeArm
						{
							OFFSET -29.972300 0.000000 0.000000
							CHANNELS 3 Xrotation Yrotation Zrotation
							JOINT RightHand
							{
								OFFSET -26.026505 0.000000 0.000000
								CHANNELS 3 Xrotation Yrotation Zrotation
								JOINT RightHandThumb1
								{
									OFFSET -12.240601 -7.148026 9.207092
									CHANNELS 3 Xrotation Yrotation Zrotation
									JOINT RightHandThumb2
									{
										OFFSET -4.138618 -2.389435 2.389433
										CHANNELS 3 Xrotation Yrotation Zrotation
										JOINT RightHandThumb3
										{
											OFFSET -2.726974 -1.574417 1.574421
											CHANNELS 3 Xrotation Yrotation Zrotation
											JOINT RightHandThumb4
											{
												OFFSET -3.941010 -2.275345 2.275343
												CHANNELS 3 Xrotation Yrotation Zrotation
												End Site
												{
													OFFSET 0.005814 5.087799 0.009927
												}
											}
										}
									}
								}
								JOINT RightHandIndex1
								{
									OFFSET -24.424698 -1.985657 5.953444
									CHANNELS 3 Xrotation Yrotation Zrotation
									JOINT RightHandIndex2
									{
										OFFSET -6.426697 0.000000 0.000000
										CHANNELS 3 Xrotation Yrotation Zrotation
										JOINT RightHandIndex3
										{
											OFFSET -5.337898 0.000000 0.000000
											CHANNELS 3 Xrotation Yrotation Zrotation
											JOINT RightHandIndex4
											{
												OFFSET -4.409401 0.000000 0.000000
												CHANNELS 3 Xrotation Yrotation Zrotation
												End Site
												{
													OFFSET 0.000000 4.409363 0.014408
												}
											}
										}
									}
								}
								JOINT RightHandMiddle1
								{
									OFFSET -23.810097 0.000000 0.000000
									CHANNELS 3 Xrotation Yrotation Zrotation
									JOINT RightHandMiddle2
									{
										OFFSET -7.176498 0.000000 0.000000
										CHANNELS 3 Xrotation Yrotation Zrotation
										JOINT RightHandMiddle3
										{
											OFFSET -6.774902 0.000000 0.000000
											CHANNELS 3 Xrotation Yrotation Zrotation
											JOINT RightHandMiddle4
											{
												OFFSET -5.403328 0.000000 0.000000
												CHANNELS 3 Xrotation Yrotation Zrotation
												End Site
												{
													OFFSET 0.027702 5.403244 0.017457
												}
											}
										}
									}
								}
								JOINT RightHandRing1
								{
									OFFSET -22.908302 -0.839325 -6.020576
									CHANNELS 3 Xrotation Yrotation Zrotation
									JOINT RightHandRing2
									{
										OFFSET -6.337502 0.000000 0.000000
										CHANNELS 3 Xrotation Yrotation Zrotation
										JOINT RightHandRing3
										{
											OFFSET -5.779297 0.000000 0.000000
											CHANNELS 3 Xrotation Yrotation Zrotation
											JOINT RightHandRing4
											{
												OFFSET -4.965698 0.000000 0.000000
												CHANNELS 3 Xrotation Yrotation Zrotation
												End Site
												{
													OFFSET 0.000000 4.965668 0.016226
												}
											}
										}
									}
								}
								JOINT RightHandPinky1
								{
									OFFSET -20.037003 -1.530334 -10.950259
									CHANNELS 3 Xrotation Yrotation Zrotation
									JOINT RightHandPinky2
									{
										OFFSET -5.254700 0.000000 0.000000
										CHANNELS 3 Xrotation Yrotation Zrotation
										JOINT RightHandPinky3
										{
											OFFSET -4.810204 0.000000 0.000000
											CHANNELS 3 Xrotation Yrotation Zrotation
											JOINT RightHandPinky4
											{
												OFFSET -3.647202 0.000000 0.000000
												CHANNELS 3 Xrotation Yrotation Zrotation
												End Site
												{
													OFFSET 0.000000 3.647186 0.011917
												}
											}
										}
									}
								}
							}
						}
					}
				}
			}
		}
	}
	JOINT LeftUpLeg
	{
		OFFSET 15.427100 -6.655098 0.678600
		CHANNELS 3 Xrotation Yrotation Zrotation
		JOINT LeftLeg
		{
			OFFSET 4.081073 -39.591068 13.024000
			CHANNELS 3 Xrotation Yrotation Zrotation
			JOINT LeftFoot
			{
				OFFSET -4.081074 -37.707932 -15.979700
				CHANNELS 3 Xrotation Yrotation Zrotation
				JOINT LeftToeBase
				{
					OFFSET 5.346399 -15.068900 20.645000
					CHANNELS 3 Xrotation Yrotation Zrotation
					JOINT LeftToe_End
					{
						OFFSET 2.754700 0.931300 11.300900
						CHANNELS 3 Xrotation Yrotation Zrotation
						End Site
						{
							OFFSET 0.000000 11.669021 0.000000
						}
					}
				}
			}
		}
	}
	JOINT RightUpLeg
	{
		OFFSET -15.569500 -6.655098 0.678600
		CHANNELS 3 Xrotation Yrotation Zrotation
		JOINT RightLeg
		{
			OFFSET -4.081825 -39.591045 13.023800
			CHANNELS 3 Xrotation Yrotation Zrotation
			JOINT RightFoot
			{
				OFFSET 4.081824 -37.707954 -15.979600
				CHANNELS 3 Xrotation Yrotation Zrotation
				JOINT RightToeBase
				{
					OFFSET -5.346400 -15.068900 20.645000
					CHANNELS 3 Xrotation Yrotation Zrotation
					JOINT RightToe_End
					{
						OFFSET -2.754700 0.931300 11.300900
						CHANNELS 3 Xrotation Yrotation Zrotation
						End Site
						{
							OFFSET 0.000000 11.669021 0.000000
						}
					}
				}
			}
		}
	}
}
MOTION
Frames: 5
Frame Time: 0.033333
0.939336 91.566628 -0.994484 8.354305 3.244286 4.152783 10.938829 -0.364293 -1.492667 2.146742 -0.031289 -0.476161 2.146508 -0.023078 -0.481559 3.259958 -0.031350 -0.090797 20.020309 -0.091174 -1.021825 -0.000003 0.000000 -0.000000 0.742835 8.952361 -13.053725 10.737605 -6.254782 -54.002590 0.000000 -32.994260 -0.000007 3.018198 -1.471489 -4.081453 -3.927802 -5.157633 8.886233 21.399403 38.836462 -0.030320 -0.455868 -2.427110 17.069155 -0.000001 0.000001 -0.000002 1.091597 5.642005 -31.108544 2.579638 4.853691 -55.959023 -0.000000 -0.001296 0.012609 0.000000 -0.000002 -0.000000 2.297560 7.098889 -41.286615 3.978839 5.544433 -71.308008 0.000003 0.004115 -0.040235 0.000001 -0.000000 0.000001 2.297558 7.098886 -41.286612 3.978844 5.544432 -71.308015 0.000001 -0.000578 0.005644 -0.000001 -0.000002 -0.000000 2.297554 7.098876 -41.286605 3.978849 5.544440 -71.308029 0.000003 -0.000583 0.005644 -0.000001 0.000000 -0.000000 1.078070 -8.352865 11.371672 3.407867 18.890954 61.317320 0.000004 23.538784 0.000012 1.182689 -2.960233 -1.406688 -4.704653 7.165784 -8.305793 21.726733 -40.852895 0.039785 0.960337 -3.700280 -18.695742 0.000000 0.000000 0.000002 0.850705 -4.913055 30.449321 2.055559 -3.864074 56.009955 0.000001 0.001220 -0.015027 -0.000001 -0.000001 -0.000000 1.937111 -6.200608 40.635350 3.168678 -4.413390 71.341326 0.000001 0.000463 -0.005654 -0.000002 0.000000 0.000000 1.937105 -6.200606 40.635353 3.168685 -4.413400 71.341346 -0.000000 0.000462 -0.005652 0.000001 -0.000000 -0.000001 1.935702 -6.201808 40.635186 3.168679 -4.413397 71.341326 0.000000 0.000459 -0.005652 -0.000002 -0.000000 0.000001 -18.003743 4.930300 1.242735 26.077985 -4.628219 -1.524444 -11.856430 0.407021 -2.244570 -7.697966 0.000001 -0.000000 0.000000 -0.000000 -0.000000 -23.282086 -8.504623 -2.961275 29.031101 0.356210 3.182162 -14.439819 1.425147 -6.978768 -5.442007 -0.000003 -0.000001 -0.000000 -0.000000 0.000000 
0.759711 89.439384 -1.143526 7.992754 3.202769 3.140796 11.386419 0.187232 -0.664128 2.224378 0.040503 -0.492997 2.223640 0.048008 -0.492003 3.210254 -0.031350 -0.050931 19.297045 0.021843 -0.637081 -0.000001 0.000000 -0.000000 0.736653 9.080944 -13.006111 10.764244 -5.811841 -53.963600 -0.000004 -33.371471 -0.000007 3.051452 -1.561272 -3.892605 -3.927802 -5.157633 8.886232 21.404134 38.859320 -0.030344 -0.443072 -2.454757 17.110280 -0.000000 0.000001 0.000000 1.048017 5.572240 -30.855779 2.560285 4.840610 -55.730037 0.000002 -0.001291 0.012601 -0.000000 -0.000000 0.000000 2.351434 7.163233 -41.180095 3.959425 5.537850 -71.106941 0.000003 0.004125 -0.040233 -0.000001 -0.000002 -0.000001 2.238214 7.037072 -41.105151 3.967681 5.540658 -71.192428 0.000003 0.005549 -0.054164 0.000001 0.000000 0.000000 2.415074 7.236675 -41.142696 3.897134 5.516243 -70.460211 0.000019 0.015247 -0.148740 0.000001 -0.000001 0.000000 1.076749 -8.247845 11.397170 3.882655 19.085275 60.989628 -0.000001 23.533229 0.000008 0.819889 -2.680624 -1.636834 -4.704652 7.165785 -8.305789 21.919073 -41.114372 0.293390 1.086262 -3.623635 -18.769561 0.000001 0.000000 0.000003 0.805749 -4.837122 30.418517 2.051220 -3.861161 55.945639 0.000002 -0.000340 0.004162 0.000001 0.000001 -0.000001 1.860866 -6.110306 40.707005 3.164379 -4.411934 71.285373 -0.000003 -0.001809 0.022186 0.000001 -0.000001 0.000001 1.862160 -6.110408 40.757265 3.158243 -4.409863 71.205733 -0.000001 -0.002814 0.034533 -0.000001 -0.000002 -0.000000 1.760579 -6.000588 40.568926 3.141895 -4.404290 70.992863 -0.000000 -0.004352 0.053453 -0.000001 0.000002 -0.000001 -25.330936 5.201719 3.403805 37.507448 -5.226333 -1.355918 -8.161747 1.115244 -2.464650 -14.744143 0.000002 0.000000 -0.000000 -0.000000 -0.000000 -24.855557 -8.884459 -1.930663 33.315163 0.296477 3.164721 -16.656938 1.556789 -7.315208 -5.443594 0.000001 0.000002 0.000000 0.000000 0.000000 
0.688762 87.259346 -1.179584 7.615609 3.082617 2.702060 12.027894 0.708990 -0.295696 2.366081 0.109584 -0.547758 2.365173 0.115521 -0.546293 3.174535 -0.026215 -0.013324 18.344020 0.260338 -0.317204 -0.000001 -0.000000 -0.000000 0.730016 9.169987 -12.967690 10.401183 -5.416169 -53.854481 0.000003 -33.712885 0.000004 3.366073 -1.703763 -3.503722 -3.927800 -5.157634 8.886230 21.410652 38.890841 -0.030328 -0.434513 -2.472350 17.136238 0.000001 -0.000000 0.000000 1.004197 5.501346 -30.527452 2.516525 4.810609 -55.209881 -0.000003 -0.001824 0.017812 -0.000000 -0.000000 -0.000001 2.378057 7.200525 -40.974575 3.911591 5.521333 -70.610571 0.000008 0.004115 -0.040234 0.000000 -0.000001 -0.000000 2.181491 6.979852 -40.838975 3.925776 5.526274 -70.757891 0.000007 0.010330 -0.100846 0.000000 -0.000001 -0.000001 2.491813 7.333139 -40.904060 3.810461 5.484866 -69.555962 0.000069 0.027394 -0.267381 -0.000001 -0.000000 0.000000 1.059336 -8.064507 11.366396 3.727233 19.854373 60.550631 -0.000009 23.206572 0.000011 0.530828 -2.297757 -1.782308 -4.704654 7.165785 -8.305789 22.124040 -41.387647 0.561276 1.219279 -3.621957 -18.744655 -0.000004 0.000000 -0.000000 0.760878 -4.762001 30.218744 2.023674 -3.842443 55.535513 -0.000001 -0.000659 0.008172 0.000001 0.000002 0.000001 1.836496 -6.085069 40.599389 3.137035 -4.402608 70.929561 0.000002 -0.003137 0.038519 0.000001 -0.000002 -0.000000 1.803205 -6.045844 40.623182 3.124889 -4.398408 70.771394 0.000003 -0.006295 0.077247 0.000001 0.000001 -0.000001 1.649059 -5.874875 40.379508 3.095602 -4.388115 70.388890 0.000006 -0.007467 0.091702 -0.000001 -0.000000 -0.000000 -33.765986 5.260306 4.987109 48.127640 -5.966727 -0.993428 0.540553 1.241249 -2.806654 -23.139492 0.004969 -0.042592 0.000000 -0.000000 -0.000000 -26.570904 -9.128753 -1.545420 37.843257 0.476563 3.139519 -19.041630 1.620856 -7.632196 -5.445093 0.000000 -0.000001 0.000000 -0.000001 -0.000000 
0.767728 85.376404 -1.060408 6.874727 2.797454 2.689030 12.892107 1.180868 -0.284490 2.553729 0.176427 -0.642002 2.552850 0.180719 -0.642804 3.158748 -0.011392 0.010729 17.409794 0.529558 -0.065411 -0.000000 0.000000 -0.000000 0.723879 9.207884 -12.939705 9.781519 -5.188783 -53.698414 -0.000001 -33.890883 -0.000009 3.717800 -1.922885 -3.047184 -3.927802 -5.157633 8.886233 21.426332 38.928646 -0.044605 -0.431087 -2.485486 17.154372 0.000002 0.000001 -0.000002 0.958100 5.425307 -30.151962 2.460017 4.770989 -54.533238 0.000001 -0.003490 0.034039 0.000001 0.000001 0.000001 2.391019 7.224681 -40.715857 3.848887 5.498961 -69.957612 0.000006 0.004118 -0.040234 -0.000001 0.000002 0.000000 2.123257 6.921228 -40.524001 3.868134 5.505912 -70.158282 0.000018 0.014704 -0.143498 -0.000001 0.000001 0.000000 2.550718 7.413060 -40.612127 3.718869 5.449991 -68.594661 0.000127 0.038334 -0.374137 -0.000000 -0.000001 -0.000001 1.029665 -7.839261 11.285283 3.021849 20.981291 60.056262 -0.000005 22.694830 -0.000004 0.446832 -1.804458 -1.969328 -4.704655 7.165784 -8.305790 22.280977 -41.593434 0.764672 1.316765 -3.640624 -18.702055 0.000000 0.000001 0.000002 0.718033 -4.689657 29.886971 1.977511 -3.810416 54.843923 0.000001 0.000271 -0.003353 0.000000 -0.000001 0.000001 1.834577 -6.089461 40.358270 3.088350 -4.385527 70.294183 -0.000001 -0.003884 0.047658 0.000000 -0.000001 0.000001 1.751621 -5.993163 40.328370 3.072742 -4.379918 70.089905 0.000009 -0.009548 0.117180 0.000000 -0.000000 -0.000001 1.600156 -5.823131 40.087463 3.033933 -4.365714 69.580817 0.000009 -0.011097 0.136112 0.000001 0.000003 0.000000 -40.383698 5.298949 5.706744 54.813474 -5.623791 -0.803942 9.448628 -0.385403 -2.679888 -31.763347 -0.118275 0.267293 -0.000000 0.000000 -0.000000 -27.569729 -9.207424 -1.614529 41.774738 0.836858 3.108138 -21.227456 1.680506 -7.867760 -5.429233 -0.000002 -0.000002 0.000000 -0.000000 0.000000 
0.750724 84.107933 -0.718361 6.086093 2.635496 2.934050 13.826206 1.564691 -0.529774 2.741291 0.230901 -0.766344 2.740554 0.234629 -0.769098 3.157745 -0.005095 0.013586 16.633440 0.647664 0.174821 0.000003 0.000000 -0.000000 0.719242 9.210703 -12.916105 9.101966 -5.239325 -53.517138 -0.000007 -33.849045 -0.000012 3.974581 -2.157614 -2.666369 -3.927801 -5.157633 8.886233 21.453670 38.972486 -0.077660 -0.415953 -2.499680 17.177528 -0.000002 0.000002 0.000004 0.910030 5.344095 -29.742045 2.395062 4.724197 -53.748514 -0.000000 -0.005652 0.055183 0.000000 0.000001 -0.000002 2.394850 7.240173 -40.420414 3.776185 5.472006 -69.197070 -0.000003 0.004122 -0.040235 -0.000001 0.000000 0.000000 2.063209 6.860222 -40.174244 3.800019 5.480972 -69.446775 0.000030 0.018887 -0.184342 0.000000 -0.000001 -0.000000 2.598432 7.483434 -40.282666 3.623339 5.411751 -67.585425 0.000200 0.048677 -0.475008 0.000001 -0.000000 -0.000000 0.998229 -7.605840 11.195513 2.055691 21.981043 59.599158 -0.000007 22.346757 0.000050 0.499819 -1.293520 -2.395192 -4.704656 7.165785 -8.305790 22.389247 -41.734560 0.903889 1.380010 -3.651315 -18.678221 0.000002 0.000001 0.000003 0.676327 -4.617786 29.483270 1.921497 -3.770433 53.996491 0.000001 0.001979 -0.024312 -0.000002 -0.000002 -0.000001 1.834743 -6.098402 40.050665 3.026929 -4.363108 69.488910 0.000001 -0.004450 0.054645 0.000001 -0.000001 -0.000001 1.700223 -5.941255 39.968396 3.010188 -4.356823 69.268678 0.000018 -0.012583 0.154444 0.000000 0.000001 -0.000000 1.586338 -5.813466 39.737323 2.963712 -4.338998 68.655532 0.000026 -0.015882 0.195069 -0.000000 0.000000 -0.000001 -47.474439 4.369462 6.718425 60.950662 -7.364774 -1.364858 10.886779 -0.159407 -4.957124 -17.672689 -0.928401 3.041439 0.000001 -0.000000 0.000000 -27.701338 -9.176516 -1.853588 44.437668 1.059458 3.103244 -22.989401 1.753205 -8.049432 -5.423614 -0.000001 0.000002 0.000000 0.000000 -0.000000 
